<svg xmlns="http://www.w3.org/2000/svg" xmlns:xlink="http://www.w3.org/1999/xlink" width="226.952" height="186.934" viewBox="0 0 226.952 186.934"><defs><linearGradient id="a" x1="0.5" x2="0.5" y2="1" gradientUnits="objectBoundingBox"><stop offset="0" stop-color="#ff8be8" stop-opacity="0.651"/><stop offset="0.439" stop-color="#ff94ea" stop-opacity="0.651"/><stop offset="1" stop-color="#ffeefe" stop-opacity="0.922"/></linearGradient><linearGradient id="b" x1="0.5" x2="0.5" y2="1" gradientUnits="objectBoundingBox"><stop offset="0" stop-color="#7df9fe"/><stop offset="0.615" stop-color="#83fafe" stop-opacity="0.816"/><stop offset="1" stop-color="#8efbff" stop-opacity="0.478"/></linearGradient></defs><g transform="translate(-91.246 -532.533)"><g transform="translate(42 -19)"><g transform="translate(47.018 551.533)" fill="#fff"><path d="M 30.10243034362793 178.2089080810547 C 26.47472763061523 178.2090759277344 22.01879501342773 177.3144683837891 17.5554313659668 175.6898498535156 C 12.96731758117676 174.0198516845703 8.905862808227539 171.7789306640625 6.119181156158447 169.3798828125 C 3.495294809341431 167.1209411621094 2.308749437332153 164.9506988525391 2.863840341567993 163.4256134033203 C 3.435226678848267 161.8553619384766 5.837181091308594 160.9547882080078 9.453794479370117 160.9547882080078 C 12.16395378112793 160.9547882080078 15.36279487609863 161.4563751220703 18.70445442199707 162.4052886962891 L 19.15184020996094 162.5323333740234 L 19.31088638305664 162.0953063964844 L 40.58081817626953 103.6552200317383 L 40.74093246459961 103.2153091430664 L 40.3125 103.0266265869141 C 33.47172546386719 100.0141067504883 28.07549858093262 94.55940246582031 25.11783981323242 87.66738128662109 C 22.14695358276367 80.74449157714844 21.93036270141602 73.03153991699219 24.50795364379883 65.94931030273438 L 48.27874374389648 0.6408381462097168 L 106.5392684936523 21.84573554992676 L 82.76936340332031 87.15510559082031 C 80.6572265625 92.95751190185547 76.86111450195313 97.86810302734375 71.79142761230469 101.3559722900391 C 69.34965515136719 103.0358581542969 66.67695617675781 104.3371276855469 63.84756851196289 105.2236480712891 C 60.98956680297852 106.1191253662109 58.02820587158203 106.5731964111328 55.04579544067383 106.5732650756836 C 52.60193252563477 106.5733108520508 50.15756607055664 106.2654495239258 47.78056716918945 105.6582183837891 L 47.34183883666992 105.5461273193359 L 47.18697738647461 105.9716491699219 L 25.85965919494629 164.5675354003906 L 25.70404434204102 164.9950408935547 L 26.11499977111816 165.1902008056641 C 29.62938499450684 166.8591766357422 32.62361145019531 168.8578338623047 34.54613494873047 170.8179931640625 C 36.39797592163086 172.7061462402344 37.16040802001953 174.4532928466797 36.69295501708984 175.7376098632813 C 36.12152099609375 177.3079681396484 33.71938705444336 178.2086944580078 30.10243034362793 178.2089080810547 Z" stroke="none"/><path d="M 30.10240936279297 177.7089080810547 C 33.44692993164063 177.7087249755859 35.73504638671875 176.9078826904297 36.22311401367188 175.5665893554688 C 36.61527252197266 174.4890899658203 35.87393188476563 172.8858947753906 34.18915939331055 171.1681060791016 C 32.30677032470703 169.2488403320313 29.36313629150391 167.2862396240234 25.90052223205566 165.6418609619141 L 25.07861328125 165.2515411376953 L 25.38981819152832 164.3965148925781 L 46.71713638305664 105.8006286621094 L 47.02688598632813 104.9496078491211 L 47.90433883666992 105.1737670898438 C 50.24086380004883 105.7706756591797 52.64358901977539 106.0733108520508 55.04577255249023 106.0732650756836 C 57.97745513916016 106.0731964111328 60.88850021362305 105.6268310546875 63.69806671142578 104.7465133666992 C 66.47977447509766 103.8749465942383 69.10742950439453 102.5956039428711 71.50801849365234 100.9440383911133 C 76.49152374267578 97.51547241210938 80.22315979003906 92.68819427490234 82.29949951171875 86.98410797119141 L 105.8983993530273 22.14459037780762 L 48.57756423950195 1.281708598136902 L 24.97781753540039 66.12030792236328 C 22.44390869140625 73.08251190185547 22.65681838989258 80.66471862792969 25.57731819152832 87.47019958496094 C 28.48488616943359 94.24549102783203 33.78950119018555 99.60769653320313 40.51399993896484 102.5690383911133 L 41.37090682983398 102.946403503418 L 41.05068206787109 103.8262405395508 L 19.7807502746582 162.2663269042969 L 19.4626350402832 163.1403503417969 L 18.56788635253906 162.8862915039063 C 15.26999950408936 161.9497833251953 12.118408203125 161.4547882080078 9.453794479370117 161.4547882080078 C 6.109612941741943 161.4547882080078 3.82172679901123 162.2554473876953 3.333681344985962 163.5966339111328 C 2.860749483108521 164.8960418701172 4.023999214172363 166.9163513183594 6.445408344268799 169.0009460449219 C 9.187385559082031 171.3615417480469 13.19374942779541 173.5701751708984 17.72645378112793 175.2200164794922 C 22.13638496398926 176.8251800537109 26.53156852722168 177.7090759277344 30.10240936279297 177.7089080810547 M 30.10245323181152 178.7089080810547 C 26.56345367431641 178.7090759277344 22.06311225891113 177.8627014160156 17.38440895080566 176.1596984863281 C 7.783204078674316 172.6650085449219 1.071908593177795 166.8870086669922 2.393999338150024 163.2546081542969 C 3.071808099746704 161.3919067382813 5.730435848236084 160.4547882080078 9.453786849975586 160.4547882080078 C 12.14239501953125 160.4547882080078 15.38586044311523 160.9431457519531 18.84104537963867 161.92431640625 L 40.11097717285156 103.4842224121094 C 25.77090835571289 97.16915130615234 18.60170364379883 80.71546936035156 24.03811264038086 65.77831268310547 L 47.97990798950195 -7.490678399335593e-06 L 107.1801147460938 21.54690170288086 L 83.23920440673828 87.32610321044922 C 78.80478668212891 99.50827026367188 67.29975128173828 107.0730056762695 55.04579544067383 107.0732574462891 C 52.59572219848633 107.0733108520508 50.11629867553711 106.7709579467773 47.65681838989258 106.1426544189453 L 26.32950019836426 164.7385406494141 C 33.62677383422852 168.2039947509766 38.2840461730957 172.8280181884766 37.16279602050781 175.9085998535156 C 36.48497772216797 177.7713775634766 33.82583999633789 178.7086944580078 30.10245323181152 178.7089080810547 Z" stroke="none" fill="#a4a4a4"/></g><path d="M33.416,135.547a18.92,18.92,0,0,0,7.636-1.63l2.134-.936a21.94,21.94,0,0,0,7.568-5.568,27.2,27.2,0,0,0,5.033-8.344,31.341,31.341,0,0,0,2.069-10.009A31.79,31.79,0,0,0,56.532,98.5L50.954,80.03c-.087,2.867-.92,8.157-5.552,11.371-2.328,2.1-4.8,2.394-7.194,2.683-2.827.341-5.5.664-7.7,3.851-1.664.869-3.217,3.41-4.861,6.1-1.6,2.617-3.414,5.584-5.611,7.469a24.3,24.3,0,0,1-8.147,4.523l.546,1.807a26.648,26.648,0,0,0,8.309,12.953A19.748,19.748,0,0,0,33.416,135.547Z" transform="matrix(0.766, 0.643, -0.643, 0.766, 145.47, 519.353)" fill="url(#a)"/></g><g transform="translate(10 -3)"><g transform="translate(188.802 557.081) rotate(-20)" fill="#fff"><path d="M 31.5 175.5003967285156 C 26.61741256713867 175.5003967285156 22.03439140319824 174.7836608886719 18.59513092041016 173.4822235107422 C 15.35684776306152 172.2568511962891 13.49960899353027 170.6232147216797 13.49960899353027 169.0001983642578 C 13.49960899353027 167.5703277587891 14.92104339599609 166.1391143798828 17.5020866394043 164.9701690673828 C 20.18558692932129 163.7548217773438 23.92660903930664 162.9215240478516 28.0360221862793 162.623779296875 L 28.49989128112793 162.5901794433594 L 28.49989128112793 162.1250915527344 L 28.49989128112793 99.93426513671875 L 28.49989128112793 99.46611022949219 L 28.03276062011719 99.43534851074219 C 20.5741081237793 98.944091796875 13.63765239715576 95.66404724121094 8.50110912322998 90.199462890625 C 3.341521739959717 84.71035003662109 0.5 77.53676605224609 0.5 70.00019836425781 L 0.5 0.5000027418136597 L 62.5 0.5000027418136597 L 62.5 70.00019836425781 C 62.5 77.36528778076172 59.77087020874023 84.41773986816406 54.81532669067383 89.85839080810547 C 49.89271926879883 95.26291656494141 43.19308853149414 98.63526153564453 35.95060729980469 99.35419464111328 L 35.5 99.39894104003906 L 35.5 99.85176086425781 L 35.5 162.2085266113281 L 35.5 162.6634826660156 L 35.95293426513672 162.7063140869141 C 39.82634735107422 163.0725708007813 43.3236083984375 163.9265747070313 45.80047988891602 165.1110076904297 C 48.1864128112793 166.2519226074219 49.50039291381836 167.6331329345703 49.50039291381836 169.0001983642578 C 49.50039291381836 170.6232147216797 47.64315032958984 172.2568511962891 44.40486907958984 173.4822235107422 C 40.96561050415039 174.7836608886719 36.38258743286133 175.5003967285156 31.5 175.5003967285156 Z" stroke="none"/><path d="M 31.5 175.0003967285156 C 36.32361221313477 175.0003967285156 40.84381866455078 174.2951507568359 44.22793197631836 173.0145874023438 C 47.2162971496582 171.8837738037109 49.00040817260742 170.383056640625 49.00040817260742 169.0001983642578 C 49.00040817260742 167.8532257080078 47.75545501708984 166.6000671386719 45.58477401733398 165.5620574951172 C 43.15959167480469 164.4023590087891 39.72220611572266 163.56494140625 35.90586471557617 163.2040863037109 L 35 163.1184234619141 L 35 162.2085113525391 L 35 99.85176849365234 L 35 98.94612884521484 L 35.90122604370117 98.85665130615234 C 43.02052307128906 98.14994812011719 49.60641098022461 94.83472442626953 54.44568252563477 89.52172088623047 C 59.31715774536133 84.17333221435547 62 77.24047088623047 62 70.00019836425781 L 62 0.9999938011169434 L 1 0.9999938011169434 L 1 70.00019836425781 C 1 77.40901947021484 3.793340921401978 84.46096801757813 8.865431785583496 89.85701751708984 C 13.91495418548584 95.22904205322266 20.73372650146484 98.45351409912109 28.06563568115234 98.93642425537109 L 28.99990844726563 98.99797058105469 L 28.99990844726563 99.93426513671875 L 28.99990844726563 162.1250915527344 L 28.99990844726563 163.0552368164063 L 28.07218170166016 163.1224670410156 C 24.02011299133301 163.4160614013672 20.33950042724609 164.2340240478516 17.70836448669434 165.4256286621094 C 15.35138607025146 166.4930877685547 13.99959087371826 167.7959747314453 13.99959087371826 169.0001983642578 C 13.99959087371826 170.383056640625 15.78370475769043 171.8837738037109 18.77206802368164 173.0145874023438 C 22.15618133544922 174.2951507568359 26.6763858795166 175.0003967285156 31.5 175.0003967285156 M 31.5 176.0003967285156 C 21.28229522705078 176.0003967285156 12.99959087371826 172.86572265625 12.99959087371826 169.0001983642578 C 12.99959087371826 165.5866546630859 19.45604515075684 162.7441253662109 27.99990844726563 162.1250915527344 L 27.99990844726563 99.93426513671875 C 12.36481857299805 98.90444946289063 3.552713678800501e-15 85.89583587646484 3.552713678800501e-15 70.00019836425781 L 3.552713678800501e-15 -6.181196567922598e-06 L 63 -6.181196567922598e-06 L 63 70.00019836425781 C 63 85.55606079101563 51.15993118286133 98.34687805175781 36 99.85176849365234 L 36 162.2085113525391 C 44.0426139831543 162.9690093994141 50.00040817260742 165.7211761474609 50.00040817260742 169.0001983642578 C 50.00040817260742 172.86572265625 41.71770477294922 176.0003967285156 31.5 176.0003967285156 Z" stroke="none" fill="#929191"/></g><path d="M36.878,135.547a19.678,19.678,0,0,1-7.8-1.63l-2.18-.936a22.39,22.39,0,0,1-7.73-5.568,27.1,27.1,0,0,1-5.141-8.344,30.773,30.773,0,0,1-2.113-10.009A31.164,31.164,0,0,1,13.266,98.5l5.7-18.465c.088,2.867.94,8.157,5.671,11.371,2.378,2.1,4.905,2.394,7.349,2.683,2.888.341,5.616.664,7.869,3.851,1.7.869,3.286,3.41,4.965,6.1,1.634,2.617,3.487,5.584,5.731,7.469a24.969,24.969,0,0,0,8.322,4.523l-.558,1.807a26.6,26.6,0,0,1-8.487,12.953A20.428,20.428,0,0,1,36.878,135.547Z" transform="matrix(0.799, -0.602, 0.602, 0.799, 147.292, 543.554)" fill="url(#b)"/></g></g></svg>